<svg width="78" height="27" viewBox="0 0 78 27" fill="none" xmlns="http://www.w3.org/2000/svg">
<path d="M28.5825 16.136V16.256C30.7745 16.944 31.8705 18.44 31.8705 20.744C31.8705 21.912 31.5585 22.96 30.9345 23.888C30.3265 24.816 29.6465 25.52 28.8945 26H23.4225V23.216H27.5505C27.7425 23.04 27.9585 22.688 28.1985 22.16C28.4385 21.632 28.5585 21.096 28.5585 20.552C28.5585 19.544 28.1985 18.8 27.4785 18.32H25.5345V15.704L28.4385 12.344L28.3185 12.08H23.5185V9.2H29.3025C30.6625 9.776 31.3425 10.688 31.3425 11.936C31.3425 12.896 30.9025 13.816 30.0225 14.696L28.5825 16.136ZM37.2988 23.216H39.4588C39.9068 22.656 40.2588 21.84 40.5148 20.768C40.7868 19.696 40.9228 18.632 40.9228 17.576C40.9228 15.064 40.4508 13.232 39.5068 12.08H37.2988V23.216ZM34.0348 26V9.2H40.9948C43.2668 11.216 44.4028 13.952 44.4028 17.408C44.4028 20.848 43.3388 23.712 41.2108 26H34.0348ZM47.4536 9.2H53.2136V12.08H48.6056L48.5336 12.224L52.3736 19.232C53.1576 20.64 53.5496 21.712 53.5496 22.448C53.5496 24.064 53.0136 25.248 51.9416 26H45.5816V23.216H50.5496L50.6216 23.072L46.3016 15.32C45.6776 14.2 45.3656 13.288 45.3656 12.584C45.3656 10.92 46.0616 9.792 47.4536 9.2Z" fill="white"/>
<rect x="78" y="23" width="3" height="20" transform="rotate(90 78 23)" fill="#007F60"/>
<rect x="20" y="23" width="3" height="20" transform="rotate(90 20 23)" fill="#007F60"/>
</svg>
