<svg width="10" height="auto" viewBox="0 0 10 10" fill="none" xmlns="http://www.w3.org/2000/svg">
<path d="M7.79584 6.68687C5.10919 6.68687 3.40274 5.0303 3.40274 2.37374C3.40274 1.79293 3.53987 1.0202 3.7227 0.611111C3.78365 0.479798 3.79888 0.388889 3.79888 0.318182C3.79888 0.156566 3.68207 0 3.47384 0C3.39766 0 3.27577 0.020202 3.14881 0.0656566C1.25952 0.818182 0 2.80303 0 4.90909C0 7.87374 2.25495 10 5.226 10C7.37938 10 9.26359 8.70707 9.9289 7.0202C9.98476 6.88889 10 6.75758 10 6.68687C10 6.4899 9.84764 6.35859 9.68512 6.35859C9.59878 6.35859 9.51752 6.37879 9.40071 6.42929C9.01981 6.56061 8.40528 6.68687 7.79584 6.68687Z" fill="white"/>
</svg>
