<svg xmlns="http://www.w3.org/2000/svg" width="16" height="auto" fill="none" viewBox="0 0 16 16"><path fill="#fff" d="M8.513 2.68A.521.521 0 0 0 8 2.167a.517.517 0 0 0-.507.513V3.7c0 .276.231.507.507.507a.517.517 0 0 0 .513-.508V2.68Zm2.009 1.868a.508.508 0 0 0 .723.713l.723-.723a.519.519 0 0 0 0-.723.517.517 0 0 0-.718.005l-.728.728Zm-5.766.713c.19.201.522.201.718.005a.517.517 0 0 0 .005-.718l-.723-.728a.522.522 0 0 0-.718-.005.517.517 0 0 0-.005.718l.723.728ZM8 5.136a2.663 2.663 0 0 0-2.646 2.646c0 1.452 1.2 2.647 2.646 2.647a2.66 2.66 0 0 0 2.642-2.647A2.66 2.66 0 0 0 8 5.136Zm5.098 3.159a.517.517 0 0 0 .507-.513.512.512 0 0 0-.507-.507h-1.02a.512.512 0 0 0-.507.507c0 .277.231.513.508.513h1.02Zm-10.19-1.02a.513.513 0 0 0-.512.507c0 .277.23.513.512.513h1.014a.521.521 0 0 0 .513-.513.517.517 0 0 0-.513-.507H2.908Zm8.332 3.029a.508.508 0 0 0-.713.723l.728.723c.19.196.522.19.718-.005a.517.517 0 0 0-.005-.718l-.728-.723Zm-7.207.718a.517.517 0 0 0-.01.718c.196.196.532.2.723.01l.728-.723a.517.517 0 0 0 .005-.718.523.523 0 0 0-.723-.005l-.723.718Zm4.48.844A.517.517 0 0 0 8 11.358a.512.512 0 0 0-.507.508v1.02c0 .275.231.511.507.511a.521.521 0 0 0 .513-.512v-1.02Z"/></svg>