<svg xmlns="http://www.w3.org/2000/svg" xmlns:xlink="http://www.w3.org/1999/xlink">
  <symbol viewBox="0 0 16 15" fill="none" id="loupe">
    <path d="M6.74233 12.3142C7.94015 12.3142 9.06264 11.9526 9.99679 11.3349L13.2965 14.6421C13.5149 14.853 13.7937 14.9585 14.095 14.9585C14.7203 14.9585 15.1798 14.4688 15.1798 13.8511C15.1798 13.5648 15.0819 13.2861 14.871 13.0751L11.5939 9.78299C12.2719 8.81871 12.6712 7.65102 12.6712 6.38539C12.6712 3.1234 10.0043 0.456543 6.74233 0.456543C3.48786 0.456543 0.813477 3.1234 0.813477 6.38539C0.813477 9.64739 3.48033 12.3142 6.74233 12.3142ZM6.74233 10.7322C4.35421 10.7322 2.39551 8.77351 2.39551 6.38539C2.39551 3.99728 4.35421 2.03857 6.74233 2.03857C9.13044 2.03857 11.0891 3.99728 11.0891 6.38539C11.0891 8.77351 9.13044 10.7322 6.74233 10.7322Z" fill="currentColor"/>
  </symbol>
  <symbol fill="none" viewBox="0 0 18 18" id="clock">
    <path fill-rule="evenodd" clip-rule="evenodd" d="M9 18C13.9706 18 18 13.9706 18 9C18 4.02944 13.9706 0 9 0C4.02944 0 0 4.02944 0 9C0 13.9706 4.02944 18 9 18ZM10 3.5C10 2.94772 9.55229 2.5 9 2.5C8.44771 2.5 8 2.94772 8 3.5V8.75C8 9.44036 8.55964 10 9.25 10H12.5C13.0523 10 13.5 9.55228 13.5 9C13.5 8.44772 13.0523 8 12.5 8H10V3.5Z" fill="currentColor"></path>
  </symbol>
  <symbol fill="none" viewBox="0 0 18 14" id="email">
    <path d="M9.00739 7.4948C9.33133 7.4948 9.61761 7.34413 9.95661 7.00513L16.5258 0.488665C16.232 0.224993 15.7122 0.0969238 14.9814 0.0969238H2.82994C2.18206 0.0969238 1.72252 0.21746 1.45884 0.458531L8.05818 7.00513C8.38965 7.34413 8.68345 7.4948 9.00739 7.4948ZM0.735631 12.0526L6.1522 6.68872L0.743164 1.34748C0.607561 1.58855 0.532227 1.98783 0.532227 2.55284V10.8773C0.532227 11.4273 0.600028 11.819 0.735631 12.0526ZM17.2641 12.045C17.3922 11.8115 17.46 11.4197 17.46 10.8773V2.55284C17.46 2.00289 17.3846 1.60362 17.249 1.37008L11.8626 6.68872L17.2641 12.045ZM3.01074 13.3333H15.1622C15.8252 13.3333 16.2923 13.2052 16.5635 12.9566L11.049 7.47974L10.5819 7.93928C10.0621 8.44402 9.56487 8.68509 9.00739 8.68509C8.44992 8.68509 7.94517 8.44402 7.42536 7.93928L6.95829 7.47974L1.45131 12.9415C1.75265 13.1976 2.27999 13.3333 3.01074 13.3333Z" fill="currentColor"></path>
  </symbol>
  <symbol fill="none" viewBox="0 0 18 18" id="whatsapp">
    <path d="M14.8747 3.09155C14.1107 2.31982 13.2007 1.70794 12.1977 1.2916C11.1948 0.875249 10.1189 0.66277 9.03301 0.666554C4.48301 0.666554 0.774675 4.37489 0.774675 8.92489C0.774675 10.3832 1.15801 11.7999 1.87467 13.0499L0.708008 17.3332L5.08301 16.1832C6.29134 16.8416 7.64967 17.1916 9.03301 17.1916C13.583 17.1916 17.2913 13.4832 17.2913 8.93322C17.2913 6.72489 16.433 4.64989 14.8747 3.09155ZM9.03301 15.7916C7.79967 15.7916 6.59134 15.4582 5.53301 14.8332L5.28301 14.6832L2.68301 15.3666L3.37467 12.8332L3.20801 12.5749C2.5228 11.4807 2.15896 10.2159 2.15801 8.92489C2.15801 5.14155 5.24134 2.05822 9.02467 2.05822C10.858 2.05822 12.583 2.77489 13.8747 4.07489C14.5142 4.71152 15.0211 5.46877 15.3658 6.30274C15.7106 7.13671 15.8864 8.03081 15.883 8.93322C15.8997 12.7166 12.8163 15.7916 9.03301 15.7916ZM12.7997 10.6582C12.5913 10.5582 11.5747 10.0582 11.3913 9.98322C11.1997 9.91655 11.0663 9.88322 10.9247 10.0832C10.783 10.2916 10.3913 10.7582 10.2747 10.8916C10.158 11.0332 10.033 11.0499 9.82467 10.9416C9.61634 10.8416 8.94967 10.6166 8.16634 9.91655C7.54967 9.36655 7.14134 8.69155 7.01634 8.48322C6.89967 8.27489 6.99967 8.16655 7.10801 8.05822C7.19967 7.96655 7.31634 7.81655 7.41634 7.69989C7.51634 7.58322 7.55801 7.49155 7.62467 7.35822C7.69134 7.21655 7.65801 7.09989 7.60801 6.99989C7.55801 6.89989 7.14134 5.88322 6.97467 5.46655C6.80801 5.06655 6.63301 5.11655 6.50801 5.10822H6.10801C5.96634 5.10822 5.74967 5.15822 5.55801 5.36655C5.37467 5.57489 4.84134 6.07489 4.84134 7.09155C4.84134 8.10822 5.58301 9.09155 5.68301 9.22489C5.78301 9.36655 7.14134 11.4499 9.20801 12.3416C9.69967 12.5582 10.083 12.6832 10.383 12.7749C10.8747 12.9332 11.3247 12.9082 11.683 12.8582C12.083 12.7999 12.908 12.3582 13.0747 11.8749C13.2497 11.3916 13.2497 10.9832 13.1913 10.8916C13.133 10.7999 13.008 10.7582 12.7997 10.6582Z" fill="currentColor"></path>
  </symbol>
  <symbol fill="none" viewBox="0 0 16 16" id="telegram">
    <path fill-rule="evenodd" clip-rule="evenodd" d="M16 8C16 12.4183 12.4183 16 8 16C3.58172 16 0 12.4183 0 8C0 3.58172 3.58172 0 8 0C12.4183 0 16 3.58172 16 8ZM8.28668 5.90595C7.50857 6.2296 5.95342 6.89946 3.62126 7.91555C3.24255 8.06615 3.04417 8.21348 3.02611 8.35754C2.99559 8.601 3.30048 8.69687 3.71565 8.82742C3.77212 8.84517 3.83064 8.86357 3.89062 8.88307C4.29909 9.01585 4.84855 9.17118 5.13419 9.17735C5.3933 9.18295 5.68249 9.07613 6.00176 8.85689C8.18077 7.386 9.30559 6.64254 9.37621 6.62651C9.42603 6.6152 9.49507 6.60099 9.54185 6.64256C9.58862 6.68414 9.58402 6.76288 9.57907 6.784C9.54887 6.91276 8.35209 8.02539 7.73275 8.60118C7.53967 8.78068 7.40272 8.90801 7.37472 8.93709C7.312 9.00223 7.24809 9.06385 7.18665 9.12307C6.80718 9.48888 6.52261 9.76321 7.20241 10.2112C7.52909 10.4265 7.7905 10.6045 8.05129 10.7821C8.33611 10.976 8.62019 11.1695 8.98774 11.4104C9.08138 11.4718 9.17082 11.5356 9.25792 11.5977C9.58938 11.834 9.88717 12.0463 10.2551 12.0124C10.4688 11.9928 10.6896 11.7917 10.8018 11.1922C11.0668 9.77543 11.5878 6.70564 11.7081 5.44065C11.7187 5.32982 11.7054 5.18798 11.6948 5.12572C11.6841 5.06345 11.6618 4.97474 11.5809 4.90907C11.4851 4.83129 11.3371 4.81489 11.2709 4.81606C10.97 4.82136 10.5084 4.98188 8.28668 5.90595Z" fill="currentColor"></path>
  </symbol>
  <symbol fill="none" viewBox="0 0 15 16" id="phone">
    <path d="M4.64007 11.1614C6.86244 13.3914 9.56697 15.109 11.7743 15.109C12.7612 15.109 13.6275 14.7625 14.3206 13.994C14.7274 13.542 14.976 13.0222 14.976 12.5024C14.976 12.1031 14.8178 11.7114 14.4336 11.4402L12.1133 9.79789C11.7517 9.54175 11.4503 9.42121 11.1791 9.42121C10.8251 9.42121 10.5087 9.61708 10.1621 9.96362L9.61217 10.506C9.5293 10.5889 9.42383 10.6266 9.32589 10.6266C9.20536 10.6266 9.09236 10.5814 9.00949 10.5362C8.54241 10.28 7.7288 9.58695 6.97545 8.8336C6.2221 8.08025 5.52148 7.27417 5.27288 6.79203C5.22768 6.70916 5.18248 6.60369 5.18248 6.48315C5.18248 6.39275 5.21261 6.28728 5.30301 6.19688L5.84542 5.64694C6.18443 5.29286 6.38784 4.98399 6.38784 4.62992C6.38784 4.35118 6.2673 4.04984 6.01116 3.68823L4.3764 1.39805C4.09766 1.00631 3.69838 0.840576 3.27651 0.840576C2.76423 0.840576 2.25195 1.06658 1.79994 1.49599C1.05413 2.20414 0.722656 3.08555 0.722656 4.05737C0.722656 6.26468 2.41016 8.93907 4.64007 11.1614Z" fill="currentColor"></path>
  </symbol>
  <symbol fill="none" viewBox="0 0 16 16" id="grid">
    <rect width="6.15385" height="6.15385" rx="2" fill="currentColor"></rect>
    <rect y="9.84619" width="6.15385" height="6.15385" rx="2" fill="currentColor"></rect>
    <rect x="9.8457" width="6.15385" height="6.15385" rx="2" fill="currentColor"></rect>
    <rect x="9.8457" y="9.84619" width="6.15385" height="6.15385" rx="2" fill="currentColor"></rect>
  </symbol>
  <symbol fill="none" viewBox="0 0 18 11" id="row">
    <path d="M2.18611 3.14847H15.8029C16.4809 3.14847 17.0798 2.56086 17.0798 1.86025C17.0798 1.14833 16.4809 0.572021 15.8029 0.572021H2.18611C1.51939 0.572021 0.90918 1.14833 0.90918 1.86025C0.90918 2.56086 1.51939 3.14847 2.18611 3.14847ZM2.18611 10.5727H15.8029C16.4809 10.5727 17.0798 9.98511 17.0798 9.28449C17.0798 8.58388 16.4809 7.99627 15.8029 7.99627H2.18611C1.51939 7.99627 0.90918 8.58388 0.90918 9.28449C0.90918 9.98511 1.51939 10.5727 2.18611 10.5727Z" fill="currentColor"></path>
  </symbol>
  <symbol fill="none" viewBox="0 0 32 32" id="arrow">
    <path fill="currentColor" d="M 10 7.210938 L 11.292969 6 L 22 16 L 11.292969 26 L 10 24.792969 L 19.40625 16 Z M 10 7.210938 "/>
  </symbol>
</svg>